<svg xmlns="http://www.w3.org/2000/svg" viewBox="0 0 1600 1100" width="1600" height="1100" role="img" aria-label="bar-lumen placeholder render">
<defs>
  <linearGradient id="bg" x1="0" y1="0" x2="1" y2="1">
    <stop offset="0" stop-color="#233129"/><stop offset="1" stop-color="#141c17"/>
  </linearGradient>
  <radialGradient id="glow" cx="0.70" cy="0.19" r="0.7">
    <stop offset="0" stop-color="#f0c070" stop-opacity="0.7"/>
    <stop offset="0.5" stop-color="#f0c070" stop-opacity="0.25"/>
    <stop offset="1" stop-color="#141c17" stop-opacity="0"/>
  </radialGradient>
  <linearGradient id="shaft" x1="0" y1="0" x2="0" y2="1">
    <stop offset="0" stop-color="#f0c070" stop-opacity="0.4"/>
    <stop offset="1" stop-color="#f0c070" stop-opacity="0"/>
  </linearGradient>
  <linearGradient id="floor" x1="0" y1="0" x2="0" y2="1">
    <stop offset="0" stop-color="#0b100d" stop-opacity="0"/>
    <stop offset="1" stop-color="#0b100d" stop-opacity="0.7"/>
  </linearGradient>
  <filter id="grain">
    <feTurbulence type="fractalNoise" baseFrequency="0.9" numOctaves="2" seed="111" stitchTiles="stitch"/>
    <feColorMatrix type="saturate" values="0"/>
    <feComponentTransfer><feFuncA type="linear" slope="0.12"/></feComponentTransfer>
    <feBlend in2="SourceGraphic" mode="overlay"/>
  </filter>
  <filter id="soft"><feGaussianBlur stdDeviation="28"/></filter>
</defs>
<rect x="0.0" y="0.0" width="1600.0" height="1100.0" fill="url(#bg)" opacity="1.00" rx="0"/>
<rect x="0.0" y="0.0" width="1600.0" height="1100.0" fill="url(#glow)" opacity="1.00" rx="0"/>
<g transform="translate(790 0) skewX(4.2)"><rect x="0.0" y="0.0" width="123.6" height="1100.0" fill="url(#shaft)" opacity="0.90" rx="0"/></g>
<g transform="translate(271 0) skewX(-2.8)"><rect x="0.0" y="0.0" width="91.0" height="1100.0" fill="url(#shaft)" opacity="0.90" rx="0"/></g>
<g transform="translate(368 0) skewX(-3.0)"><rect x="0.0" y="0.0" width="167.3" height="1100.0" fill="url(#shaft)" opacity="0.90" rx="0"/></g>
<rect x="0.0" y="697.1" width="1600.0" height="402.9" fill="url(#floor)" opacity="1.00" rx="0"/>
<rect x="1038.2" y="536.9" width="192.1" height="217.4" fill="#0b100d" opacity="0.67" rx="6"/>
<rect x="1211.7" y="532.3" width="273.0" height="189.9" fill="#0b100d" opacity="0.70" rx="0"/>
<rect x="1307.5" y="596.6" width="169.1" height="114.5" fill="#46523d" opacity="0.73" rx="0"/>
<rect x="664.7" y="611.2" width="279.4" height="132.5" fill="#46523d" opacity="0.47" rx="120"/>
<rect x="1210.7" y="540.1" width="220.4" height="147.7" fill="#46523d" opacity="0.66" rx="0"/>
<rect x="609.2" y="699.9" width="351.5" height="42.7" fill="#0b100d" opacity="0.56" rx="0"/>
<rect x="988.0" y="682.5" width="189.1" height="84.9" fill="#0b100d" opacity="0.58" rx="120"/>
<rect x="-38.2" y="597.0" width="249.4" height="164.3" fill="#46523d" opacity="0.74" rx="0"/>
<circle cx="1164" cy="367" r="127" fill="#f0c070" opacity="0.28" filter="url(#soft)"/>
<line x1="1164" y1="0" x2="1164" y2="325" stroke="#0b100d" stroke-opacity="0.5" stroke-width="2"/>
<circle cx="1164" cy="367" r="42" fill="#f0c070" opacity="0.95"/>
<circle cx="849" cy="338" r="80" fill="#f0c070" opacity="0.28" filter="url(#soft)"/>
<line x1="849" y1="0" x2="849" y2="312" stroke="#0b100d" stroke-opacity="0.5" stroke-width="2"/>
<circle cx="849" cy="338" r="27" fill="#f0c070" opacity="0.95"/>
<circle cx="733" cy="404" r="119" fill="#f0c070" opacity="0.28" filter="url(#soft)"/>
<line x1="733" y1="0" x2="733" y2="365" stroke="#0b100d" stroke-opacity="0.5" stroke-width="2"/>
<circle cx="733" cy="404" r="40" fill="#f0c070" opacity="0.95"/>
<rect x="968.0" y="506.1" width="480.6" height="520.0" fill="#46523d" opacity="0.30" rx="0"/>
<rect width="1600" height="1100" fill="#141c17" opacity="0.001" filter="url(#grain)"/>
</svg>