<svg xmlns="http://www.w3.org/2000/svg" viewBox="0 0 1600 1100" width="1600" height="1100" role="img" aria-label="hero-01 placeholder render">
<defs>
  <linearGradient id="bg" x1="0" y1="0" x2="1" y2="1">
    <stop offset="0" stop-color="#f2dfbf"/><stop offset="1" stop-color="#e7cfa9"/>
  </linearGradient>
  <radialGradient id="glow" cx="0.29" cy="0.28" r="0.7">
    <stop offset="0" stop-color="#ffd79a" stop-opacity="0.9"/>
    <stop offset="0.5" stop-color="#ffd79a" stop-opacity="0.25"/>
    <stop offset="1" stop-color="#e7cfa9" stop-opacity="0"/>
  </radialGradient>
  <linearGradient id="shaft" x1="0" y1="0" x2="0" y2="1">
    <stop offset="0" stop-color="#ffd79a" stop-opacity="0.55"/>
    <stop offset="1" stop-color="#ffd79a" stop-opacity="0"/>
  </linearGradient>
  <linearGradient id="floor" x1="0" y1="0" x2="0" y2="1">
    <stop offset="0" stop-color="#4a3a2a" stop-opacity="0"/>
    <stop offset="1" stop-color="#4a3a2a" stop-opacity="0.28"/>
  </linearGradient>
  <filter id="grain">
    <feTurbulence type="fractalNoise" baseFrequency="0.9" numOctaves="2" seed="100" stitchTiles="stitch"/>
    <feColorMatrix type="saturate" values="0"/>
    <feComponentTransfer><feFuncA type="linear" slope="0.12"/></feComponentTransfer>
    <feBlend in2="SourceGraphic" mode="overlay"/>
  </filter>
  <filter id="soft"><feGaussianBlur stdDeviation="28"/></filter>
</defs>
<rect x="0.0" y="0.0" width="1600.0" height="1100.0" fill="url(#bg)" opacity="1.00" rx="0"/>
<rect x="0.0" y="0.0" width="1600.0" height="1100.0" fill="url(#glow)" opacity="1.00" rx="0"/>
<g transform="translate(1129 0) skewX(-2.4)"><rect x="0.0" y="0.0" width="177.1" height="1100.0" fill="url(#shaft)" opacity="0.90" rx="0"/></g>
<g transform="translate(1280 0) skewX(-15.1)"><rect x="0.0" y="0.0" width="145.3" height="1100.0" fill="url(#shaft)" opacity="0.90" rx="0"/></g>
<rect x="0.0" y="708.2" width="1600.0" height="391.8" fill="url(#floor)" opacity="1.00" rx="0"/>
<rect x="248.8" y="528.7" width="267.9" height="182.5" fill="#4a3a2a" opacity="0.44" rx="0"/>
<rect x="924.0" y="668.2" width="140.9" height="116.3" fill="#4a3a2a" opacity="0.29" rx="120"/>
<rect x="1138.0" y="466.0" width="240.0" height="238.3" fill="#b9722f" opacity="0.35" rx="0"/>
<rect x="1188.7" y="617.8" width="91.5" height="127.0" fill="#4a3a2a" opacity="0.23" rx="0"/>
<rect x="562.0" y="659.8" width="336.7" height="92.2" fill="#4a3a2a" opacity="0.21" rx="0"/>
<rect x="1064.7" y="541.1" width="254.5" height="197.8" fill="#4a3a2a" opacity="0.37" rx="6"/>
<circle cx="859" cy="439" r="144" fill="#ffd79a" opacity="0.5" filter="url(#soft)"/>
<line x1="859" y1="0" x2="859" y2="391" stroke="#4a3a2a" stroke-opacity="0.5" stroke-width="2"/>
<circle cx="859" cy="439" r="48" fill="#ffd79a" opacity="0.95"/>
<circle cx="662" cy="104" r="52" fill="#ffd79a" opacity="0.5" filter="url(#soft)"/>
<line x1="662" y1="0" x2="662" y2="86" stroke="#4a3a2a" stroke-opacity="0.5" stroke-width="2"/>
<circle cx="662" cy="104" r="17" fill="#ffd79a" opacity="0.95"/>
<circle cx="520" cy="245" r="66" fill="#ffd79a" opacity="0.5" filter="url(#soft)"/>
<line x1="520" y1="0" x2="520" y2="223" stroke="#4a3a2a" stroke-opacity="0.5" stroke-width="2"/>
<circle cx="520" cy="245" r="22" fill="#ffd79a" opacity="0.95"/>
<circle cx="1254" cy="349" r="87" fill="#ffd79a" opacity="0.5" filter="url(#soft)"/>
<line x1="1254" y1="0" x2="1254" y2="320" stroke="#4a3a2a" stroke-opacity="0.5" stroke-width="2"/>
<circle cx="1254" cy="349" r="29" fill="#ffd79a" opacity="0.95"/>
<rect x="819.2" y="313.8" width="577.4" height="520.0" fill="#b9722f" opacity="0.30" rx="0"/>
<rect width="1600" height="1100" fill="#e7cfa9" opacity="0.001" filter="url(#grain)"/>
</svg>