<svg xmlns="http://www.w3.org/2000/svg" viewBox="0 0 1600 1100" width="1600" height="1100" role="img" aria-label="rest-salt placeholder render">
<defs>
  <linearGradient id="bg" x1="0" y1="0" x2="1" y2="1">
    <stop offset="0" stop-color="#3f3a30"/><stop offset="1" stop-color="#171614"/>
  </linearGradient>
  <radialGradient id="glow" cx="0.78" cy="0.45" r="0.7">
    <stop offset="0" stop-color="#f0e5cc" stop-opacity="0.55"/>
    <stop offset="0.5" stop-color="#c9b48a" stop-opacity="0.18"/>
    <stop offset="1" stop-color="#171614" stop-opacity="0"/>
  </radialGradient>
  <linearGradient id="shaft" x1="0" y1="0" x2="0" y2="1">
    <stop offset="0" stop-color="#f0e5cc" stop-opacity="0.35"/>
    <stop offset="1" stop-color="#f0e5cc" stop-opacity="0"/>
  </linearGradient>
  <linearGradient id="floor" x1="0" y1="0" x2="0" y2="1">
    <stop offset="0" stop-color="#171614" stop-opacity="0"/>
    <stop offset="1" stop-color="#000" stop-opacity="0.65"/>
  </linearGradient>
  <filter id="grain">
    <feTurbulence type="fractalNoise" baseFrequency="0.9" numOctaves="2" seed="104" stitchTiles="stitch"/>
    <feColorMatrix type="saturate" values="0"/>
    <feComponentTransfer><feFuncA type="linear" slope="0.14"/></feComponentTransfer>
    <feBlend in2="SourceGraphic" mode="overlay"/>
  </filter>
  <filter id="soft"><feGaussianBlur stdDeviation="28"/></filter>
</defs>
<rect x="0.0" y="0.0" width="1600.0" height="1100.0" fill="url(#bg)" opacity="1.00" rx="0"/>
<rect x="0.0" y="0.0" width="1600.0" height="1100.0" fill="url(#glow)" opacity="1.00" rx="0"/>
<g transform="translate(1233 0) skewX(-17.8)"><rect x="0.0" y="0.0" width="122.6" height="1100.0" fill="url(#shaft)" opacity="0.90" rx="0"/></g>
<g transform="translate(200 0) skewX(14.8)"><rect x="0.0" y="0.0" width="190.8" height="1100.0" fill="url(#shaft)" opacity="0.90" rx="0"/></g>
<g transform="translate(168 0) skewX(-15.3)"><rect x="0.0" y="0.0" width="83.5" height="1100.0" fill="url(#shaft)" opacity="0.90" rx="0"/></g>
<g transform="translate(1206 0) skewX(-15.8)"><rect x="0.0" y="0.0" width="119.0" height="1100.0" fill="url(#shaft)" opacity="0.90" rx="0"/></g>
<rect x="0.0" y="669.3" width="1600.0" height="430.7" fill="url(#floor)" opacity="1.00" rx="0"/>
<rect x="882.4" y="601.2" width="195.6" height="110.9" fill="#3f3a30" opacity="0.27" rx="120"/>
<rect x="219.7" y="609.3" width="234.8" height="96.8" fill="#000" opacity="0.27" rx="0"/>
<rect x="526.8" y="646.1" width="313.6" height="95.5" fill="#171614" opacity="0.53" rx="0"/>
<rect x="949.5" y="634.5" width="309.6" height="60.8" fill="#3f3a30" opacity="0.53" rx="0"/>
<rect x="650.5" y="573.8" width="359.0" height="79.5" fill="#3f3a30" opacity="0.26" rx="120"/>
<rect x="90.7" y="487.2" width="133.3" height="177.5" fill="#000" opacity="0.31" rx="0"/>
<rect x="833.9" y="547.3" width="123.3" height="143.8" fill="#3f3a30" opacity="0.49" rx="120"/>
<rect x="1005.1" y="509.7" width="173.8" height="225.4" fill="#3f3a30" opacity="0.48" rx="0"/>
<circle cx="455" cy="88" r="122" fill="#f0e5cc" opacity="0.18" filter="url(#soft)"/>
<line x1="455" y1="0" x2="455" y2="48" stroke="#c9b48a" stroke-opacity="0.35" stroke-width="2"/>
<circle cx="455" cy="88" r="41" fill="#f0e5cc" opacity="0.9"/>
<circle cx="1333" cy="124" r="62" fill="#f0e5cc" opacity="0.18" filter="url(#soft)"/>
<line x1="1333" y1="0" x2="1333" y2="104" stroke="#c9b48a" stroke-opacity="0.35" stroke-width="2"/>
<circle cx="1333" cy="124" r="21" fill="#f0e5cc" opacity="0.9"/>
<rect x="111.1" y="277.9" width="332.7" height="520.0" fill="#c9b48a" opacity="0.22" rx="0"/>
<rect x="0.0" y="0.0" width="1600.0" height="1100.0" fill="#000" opacity="0.00" rx="0"/>
<rect width="1600" height="1100" fill="#171614" opacity="0.001" filter="url(#grain)"/>
</svg>