<svg xmlns="http://www.w3.org/2000/svg" viewBox="0 0 1600 1100" width="1600" height="1100" role="img" aria-label="rest-ember placeholder render">
<defs>
  <linearGradient id="bg" x1="0" y1="0" x2="1" y2="1">
    <stop offset="0" stop-color="#4a2e1f"/><stop offset="1" stop-color="#1c1410"/>
  </linearGradient>
  <radialGradient id="glow" cx="0.79" cy="0.28" r="0.7">
    <stop offset="0" stop-color="#f5c078" stop-opacity="0.55"/>
    <stop offset="0.5" stop-color="#d47a3a" stop-opacity="0.18"/>
    <stop offset="1" stop-color="#1c1410" stop-opacity="0"/>
  </radialGradient>
  <linearGradient id="shaft" x1="0" y1="0" x2="0" y2="1">
    <stop offset="0" stop-color="#f5c078" stop-opacity="0.35"/>
    <stop offset="1" stop-color="#f5c078" stop-opacity="0"/>
  </linearGradient>
  <linearGradient id="floor" x1="0" y1="0" x2="0" y2="1">
    <stop offset="0" stop-color="#1c1410" stop-opacity="0"/>
    <stop offset="1" stop-color="#000" stop-opacity="0.65"/>
  </linearGradient>
  <filter id="grain">
    <feTurbulence type="fractalNoise" baseFrequency="0.9" numOctaves="2" seed="103" stitchTiles="stitch"/>
    <feColorMatrix type="saturate" values="0"/>
    <feComponentTransfer><feFuncA type="linear" slope="0.14"/></feComponentTransfer>
    <feBlend in2="SourceGraphic" mode="overlay"/>
  </filter>
  <filter id="soft"><feGaussianBlur stdDeviation="28"/></filter>
</defs>
<rect x="0.0" y="0.0" width="1600.0" height="1100.0" fill="url(#bg)" opacity="1.00" rx="0"/>
<rect x="0.0" y="0.0" width="1600.0" height="1100.0" fill="url(#glow)" opacity="1.00" rx="0"/>
<g transform="translate(1114 0) skewX(6.8)"><rect x="0.0" y="0.0" width="190.9" height="1100.0" fill="url(#shaft)" opacity="0.90" rx="0"/></g>
<g transform="translate(1460 0) skewX(5.6)"><rect x="0.0" y="0.0" width="178.3" height="1100.0" fill="url(#shaft)" opacity="0.90" rx="0"/></g>
<g transform="translate(738 0) skewX(6.3)"><rect x="0.0" y="0.0" width="114.1" height="1100.0" fill="url(#shaft)" opacity="0.90" rx="0"/></g>
<g transform="translate(783 0) skewX(3.0)"><rect x="0.0" y="0.0" width="81.1" height="1100.0" fill="url(#shaft)" opacity="0.90" rx="0"/></g>
<rect x="0.0" y="787.8" width="1600.0" height="312.2" fill="url(#floor)" opacity="1.00" rx="0"/>
<rect x="155.2" y="756.6" width="150.8" height="63.6" fill="#000" opacity="0.59" rx="120"/>
<rect x="1139.3" y="645.0" width="151.2" height="184.6" fill="#000" opacity="0.42" rx="0"/>
<rect x="593.5" y="616.9" width="345.4" height="176.0" fill="#1c1410" opacity="0.66" rx="120"/>
<rect x="389.1" y="620.1" width="232.7" height="195.8" fill="#000" opacity="0.31" rx="6"/>
<rect x="427.0" y="706.0" width="338.3" height="145.9" fill="#000" opacity="0.39" rx="0"/>
<rect x="981.5" y="674.8" width="356.5" height="163.9" fill="#1c1410" opacity="0.26" rx="120"/>
<circle cx="634" cy="395" r="69" fill="#f5c078" opacity="0.18" filter="url(#soft)"/>
<line x1="634" y1="0" x2="634" y2="372" stroke="#d47a3a" stroke-opacity="0.35" stroke-width="2"/>
<circle cx="634" cy="395" r="23" fill="#f5c078" opacity="0.9"/>
<circle cx="1345" cy="156" r="121" fill="#f5c078" opacity="0.18" filter="url(#soft)"/>
<line x1="1345" y1="0" x2="1345" y2="116" stroke="#d47a3a" stroke-opacity="0.35" stroke-width="2"/>
<circle cx="1345" cy="156" r="40" fill="#f5c078" opacity="0.9"/>
<circle cx="555" cy="208" r="43" fill="#f5c078" opacity="0.18" filter="url(#soft)"/>
<line x1="555" y1="0" x2="555" y2="193" stroke="#d47a3a" stroke-opacity="0.35" stroke-width="2"/>
<circle cx="555" cy="208" r="14" fill="#f5c078" opacity="0.9"/>
<circle cx="436" cy="183" r="64" fill="#f5c078" opacity="0.18" filter="url(#soft)"/>
<line x1="436" y1="0" x2="436" y2="161" stroke="#d47a3a" stroke-opacity="0.35" stroke-width="2"/>
<circle cx="436" cy="183" r="21" fill="#f5c078" opacity="0.9"/>
<circle cx="1408" cy="147" r="51" fill="#f5c078" opacity="0.18" filter="url(#soft)"/>
<line x1="1408" y1="0" x2="1408" y2="130" stroke="#d47a3a" stroke-opacity="0.35" stroke-width="2"/>
<circle cx="1408" cy="147" r="17" fill="#f5c078" opacity="0.9"/>
<rect x="31.1" y="509.7" width="494.6" height="520.0" fill="#d47a3a" opacity="0.22" rx="0"/>
<rect x="0.0" y="0.0" width="1600.0" height="1100.0" fill="#000" opacity="0.00" rx="0"/>
<rect width="1600" height="1100" fill="#1c1410" opacity="0.001" filter="url(#grain)"/>
</svg>