<svg xmlns="http://www.w3.org/2000/svg" viewBox="0 0 1600 1100" width="1600" height="1100" role="img" aria-label="shop-grove placeholder render">
<defs>
  <linearGradient id="bg" x1="0" y1="0" x2="1" y2="1">
    <stop offset="0" stop-color="#eff0e6"/><stop offset="1" stop-color="#e3e6d8"/>
  </linearGradient>
  <radialGradient id="glow" cx="0.74" cy="0.18" r="0.7">
    <stop offset="0" stop-color="#f6f4e6" stop-opacity="0.9"/>
    <stop offset="0.5" stop-color="#f6f4e6" stop-opacity="0.25"/>
    <stop offset="1" stop-color="#e3e6d8" stop-opacity="0"/>
  </radialGradient>
  <linearGradient id="shaft" x1="0" y1="0" x2="0" y2="1">
    <stop offset="0" stop-color="#f6f4e6" stop-opacity="0.55"/>
    <stop offset="1" stop-color="#f6f4e6" stop-opacity="0"/>
  </linearGradient>
  <linearGradient id="floor" x1="0" y1="0" x2="0" y2="1">
    <stop offset="0" stop-color="#3b4634" stop-opacity="0"/>
    <stop offset="1" stop-color="#3b4634" stop-opacity="0.28"/>
  </linearGradient>
  <filter id="grain">
    <feTurbulence type="fractalNoise" baseFrequency="0.9" numOctaves="2" seed="115" stitchTiles="stitch"/>
    <feColorMatrix type="saturate" values="0"/>
    <feComponentTransfer><feFuncA type="linear" slope="0.12"/></feComponentTransfer>
    <feBlend in2="SourceGraphic" mode="overlay"/>
  </filter>
  <filter id="soft"><feGaussianBlur stdDeviation="28"/></filter>
</defs>
<rect x="0.0" y="0.0" width="1600.0" height="1100.0" fill="url(#bg)" opacity="1.00" rx="0"/>
<rect x="0.0" y="0.0" width="1600.0" height="1100.0" fill="url(#glow)" opacity="1.00" rx="0"/>
<g transform="translate(860 0) skewX(13.4)"><rect x="0.0" y="0.0" width="113.5" height="1100.0" fill="url(#shaft)" opacity="0.90" rx="0"/></g>
<g transform="translate(878 0) skewX(15.0)"><rect x="0.0" y="0.0" width="106.7" height="1100.0" fill="url(#shaft)" opacity="0.90" rx="0"/></g>
<rect x="0.0" y="681.8" width="1600.0" height="418.2" fill="url(#floor)" opacity="1.00" rx="0"/>
<rect x="169.5" y="505.6" width="220.4" height="160.3" fill="#3b4634" opacity="0.44" rx="0"/>
<rect x="777.7" y="517.4" width="134.6" height="231.2" fill="#3b4634" opacity="0.39" rx="120"/>
<rect x="482.5" y="602.0" width="94.1" height="84.5" fill="#7f8f66" opacity="0.37" rx="0"/>
<rect x="1266.2" y="459.1" width="158.4" height="257.7" fill="#3b4634" opacity="0.31" rx="6"/>
<rect x="1427.7" y="517.3" width="140.0" height="205.8" fill="#7f8f66" opacity="0.33" rx="120"/>
<rect x="659.1" y="594.0" width="346.0" height="81.4" fill="#7f8f66" opacity="0.27" rx="6"/>
<rect x="208.9" y="547.6" width="239.8" height="180.0" fill="#3b4634" opacity="0.34" rx="0"/>
<rect x="38.6" y="497.4" width="99.6" height="259.6" fill="#7f8f66" opacity="0.26" rx="120"/>
<circle cx="1232" cy="187" r="139" fill="#f6f4e6" opacity="0.5" filter="url(#soft)"/>
<line x1="1232" y1="0" x2="1232" y2="141" stroke="#3b4634" stroke-opacity="0.5" stroke-width="2"/>
<circle cx="1232" cy="187" r="46" fill="#f6f4e6" opacity="0.95"/>
<circle cx="339" cy="103" r="62" fill="#f6f4e6" opacity="0.5" filter="url(#soft)"/>
<line x1="339" y1="0" x2="339" y2="82" stroke="#3b4634" stroke-opacity="0.5" stroke-width="2"/>
<circle cx="339" cy="103" r="21" fill="#f6f4e6" opacity="0.95"/>
<circle cx="947" cy="105" r="110" fill="#f6f4e6" opacity="0.5" filter="url(#soft)"/>
<line x1="947" y1="0" x2="947" y2="69" stroke="#3b4634" stroke-opacity="0.5" stroke-width="2"/>
<circle cx="947" cy="105" r="37" fill="#f6f4e6" opacity="0.95"/>
<circle cx="1248" cy="373" r="127" fill="#f6f4e6" opacity="0.5" filter="url(#soft)"/>
<line x1="1248" y1="0" x2="1248" y2="331" stroke="#3b4634" stroke-opacity="0.5" stroke-width="2"/>
<circle cx="1248" cy="373" r="42" fill="#f6f4e6" opacity="0.95"/>
<rect x="559.3" y="384.0" width="499.6" height="520.0" fill="#7f8f66" opacity="0.30" rx="0"/>
<rect width="1600" height="1100" fill="#e3e6d8" opacity="0.001" filter="url(#grain)"/>
</svg>