<svg xmlns="http://www.w3.org/2000/svg" viewBox="0 0 1600 1100" width="1600" height="1100" role="img" aria-label="shop-clay placeholder render">
<defs>
  <linearGradient id="bg" x1="0" y1="0" x2="1" y2="1">
    <stop offset="0" stop-color="#f2dfbf"/><stop offset="1" stop-color="#e7cfa9"/>
  </linearGradient>
  <radialGradient id="glow" cx="0.34" cy="0.14" r="0.7">
    <stop offset="0" stop-color="#ffd79a" stop-opacity="0.9"/>
    <stop offset="0.5" stop-color="#ffd79a" stop-opacity="0.25"/>
    <stop offset="1" stop-color="#e7cfa9" stop-opacity="0"/>
  </radialGradient>
  <linearGradient id="shaft" x1="0" y1="0" x2="0" y2="1">
    <stop offset="0" stop-color="#ffd79a" stop-opacity="0.55"/>
    <stop offset="1" stop-color="#ffd79a" stop-opacity="0"/>
  </linearGradient>
  <linearGradient id="floor" x1="0" y1="0" x2="0" y2="1">
    <stop offset="0" stop-color="#4a3a2a" stop-opacity="0"/>
    <stop offset="1" stop-color="#4a3a2a" stop-opacity="0.28"/>
  </linearGradient>
  <filter id="grain">
    <feTurbulence type="fractalNoise" baseFrequency="0.9" numOctaves="2" seed="114" stitchTiles="stitch"/>
    <feColorMatrix type="saturate" values="0"/>
    <feComponentTransfer><feFuncA type="linear" slope="0.12"/></feComponentTransfer>
    <feBlend in2="SourceGraphic" mode="overlay"/>
  </filter>
  <filter id="soft"><feGaussianBlur stdDeviation="28"/></filter>
</defs>
<rect x="0.0" y="0.0" width="1600.0" height="1100.0" fill="url(#bg)" opacity="1.00" rx="0"/>
<rect x="0.0" y="0.0" width="1600.0" height="1100.0" fill="url(#glow)" opacity="1.00" rx="0"/>
<g transform="translate(1541 0) skewX(-16.3)"><rect x="0.0" y="0.0" width="160.2" height="1100.0" fill="url(#shaft)" opacity="0.90" rx="0"/></g>
<g transform="translate(830 0) skewX(0.6)"><rect x="0.0" y="0.0" width="144.9" height="1100.0" fill="url(#shaft)" opacity="0.90" rx="0"/></g>
<g transform="translate(931 0) skewX(10.3)"><rect x="0.0" y="0.0" width="146.0" height="1100.0" fill="url(#shaft)" opacity="0.90" rx="0"/></g>
<g transform="translate(596 0) skewX(11.9)"><rect x="0.0" y="0.0" width="173.0" height="1100.0" fill="url(#shaft)" opacity="0.90" rx="0"/></g>
<rect x="0.0" y="652.4" width="1600.0" height="447.6" fill="url(#floor)" opacity="1.00" rx="0"/>
<rect x="1330.4" y="513.4" width="196.7" height="171.8" fill="#4a3a2a" opacity="0.32" rx="120"/>
<rect x="1312.1" y="622.6" width="257.9" height="90.8" fill="#4a3a2a" opacity="0.33" rx="0"/>
<rect x="724.9" y="466.2" width="352.0" height="230.8" fill="#4a3a2a" opacity="0.23" rx="0"/>
<rect x="163.9" y="604.2" width="219.5" height="58.1" fill="#4a3a2a" opacity="0.20" rx="120"/>
<rect x="302.4" y="538.2" width="112.2" height="114.8" fill="#4a3a2a" opacity="0.22" rx="120"/>
<rect x="111.1" y="557.3" width="294.3" height="117.4" fill="#4a3a2a" opacity="0.39" rx="0"/>
<rect x="45.7" y="442.4" width="160.7" height="238.7" fill="#4a3a2a" opacity="0.27" rx="6"/>
<rect x="582.2" y="433.6" width="354.7" height="225.1" fill="#4a3a2a" opacity="0.32" rx="120"/>
<rect x="10.9" y="612.4" width="208.5" height="98.1" fill="#4a3a2a" opacity="0.32" rx="120"/>
<circle cx="1279" cy="303" r="94" fill="#ffd79a" opacity="0.5" filter="url(#soft)"/>
<line x1="1279" y1="0" x2="1279" y2="272" stroke="#4a3a2a" stroke-opacity="0.5" stroke-width="2"/>
<circle cx="1279" cy="303" r="31" fill="#ffd79a" opacity="0.95"/>
<circle cx="1499" cy="234" r="120" fill="#ffd79a" opacity="0.5" filter="url(#soft)"/>
<line x1="1499" y1="0" x2="1499" y2="194" stroke="#4a3a2a" stroke-opacity="0.5" stroke-width="2"/>
<circle cx="1499" cy="234" r="40" fill="#ffd79a" opacity="0.95"/>
<rect x="494.8" y="372.3" width="403.2" height="520.0" fill="#b9722f" opacity="0.30" rx="0"/>
<rect width="1600" height="1100" fill="#e7cfa9" opacity="0.001" filter="url(#grain)"/>
</svg>