<svg xmlns="http://www.w3.org/2000/svg" viewBox="0 0 1600 1100" width="1600" height="1100" role="img" aria-label="shop-clay placeholder render">
<defs>
  <linearGradient id="bg" x1="0" y1="0" x2="1" y2="1">
    <stop offset="0" stop-color="#4e3527"/><stop offset="1" stop-color="#1a1512"/>
  </linearGradient>
  <radialGradient id="glow" cx="0.22" cy="0.45" r="0.7">
    <stop offset="0" stop-color="#f7c7a8" stop-opacity="0.55"/>
    <stop offset="0.5" stop-color="#c67e5a" stop-opacity="0.18"/>
    <stop offset="1" stop-color="#1a1512" stop-opacity="0"/>
  </radialGradient>
  <linearGradient id="shaft" x1="0" y1="0" x2="0" y2="1">
    <stop offset="0" stop-color="#f7c7a8" stop-opacity="0.35"/>
    <stop offset="1" stop-color="#f7c7a8" stop-opacity="0"/>
  </linearGradient>
  <linearGradient id="floor" x1="0" y1="0" x2="0" y2="1">
    <stop offset="0" stop-color="#1a1512" stop-opacity="0"/>
    <stop offset="1" stop-color="#000" stop-opacity="0.65"/>
  </linearGradient>
  <filter id="grain">
    <feTurbulence type="fractalNoise" baseFrequency="0.9" numOctaves="2" seed="113" stitchTiles="stitch"/>
    <feColorMatrix type="saturate" values="0"/>
    <feComponentTransfer><feFuncA type="linear" slope="0.14"/></feComponentTransfer>
    <feBlend in2="SourceGraphic" mode="overlay"/>
  </filter>
  <filter id="soft"><feGaussianBlur stdDeviation="28"/></filter>
</defs>
<rect x="0.0" y="0.0" width="1600.0" height="1100.0" fill="url(#bg)" opacity="1.00" rx="0"/>
<rect x="0.0" y="0.0" width="1600.0" height="1100.0" fill="url(#glow)" opacity="1.00" rx="0"/>
<g transform="translate(439 0) skewX(-5.5)"><rect x="0.0" y="0.0" width="136.5" height="1100.0" fill="url(#shaft)" opacity="0.90" rx="0"/></g>
<g transform="translate(698 0) skewX(-15.6)"><rect x="0.0" y="0.0" width="65.0" height="1100.0" fill="url(#shaft)" opacity="0.90" rx="0"/></g>
<g transform="translate(202 0) skewX(16.3)"><rect x="0.0" y="0.0" width="107.7" height="1100.0" fill="url(#shaft)" opacity="0.90" rx="0"/></g>
<g transform="translate(484 0) skewX(-11.0)"><rect x="0.0" y="0.0" width="114.2" height="1100.0" fill="url(#shaft)" opacity="0.90" rx="0"/></g>
<rect x="0.0" y="697.2" width="1600.0" height="402.8" fill="url(#floor)" opacity="1.00" rx="0"/>
<rect x="450.8" y="725.5" width="287.3" height="48.4" fill="#000" opacity="0.52" rx="120"/>
<rect x="531.5" y="628.8" width="274.8" height="76.2" fill="#000" opacity="0.34" rx="0"/>
<rect x="1082.1" y="687.2" width="99.6" height="79.4" fill="#1a1512" opacity="0.49" rx="0"/>
<rect x="219.8" y="483.1" width="131.5" height="241.3" fill="#000" opacity="0.48" rx="0"/>
<rect x="1296.1" y="548.5" width="148.0" height="159.4" fill="#000" opacity="0.56" rx="0"/>
<rect x="792.9" y="454.7" width="276.2" height="246.1" fill="#000" opacity="0.46" rx="0"/>
<rect x="1283.2" y="519.9" width="259.1" height="236.7" fill="#1a1512" opacity="0.41" rx="0"/>
<rect x="1031.7" y="493.1" width="261.7" height="233.2" fill="#000" opacity="0.39" rx="6"/>
<circle cx="1087" cy="90" r="63" fill="#f7c7a8" opacity="0.18" filter="url(#soft)"/>
<line x1="1087" y1="0" x2="1087" y2="69" stroke="#c67e5a" stroke-opacity="0.35" stroke-width="2"/>
<circle cx="1087" cy="90" r="21" fill="#f7c7a8" opacity="0.9"/>
<circle cx="687" cy="293" r="78" fill="#f7c7a8" opacity="0.18" filter="url(#soft)"/>
<line x1="687" y1="0" x2="687" y2="267" stroke="#c67e5a" stroke-opacity="0.35" stroke-width="2"/>
<circle cx="687" cy="293" r="26" fill="#f7c7a8" opacity="0.9"/>
<circle cx="624" cy="433" r="81" fill="#f7c7a8" opacity="0.18" filter="url(#soft)"/>
<line x1="624" y1="0" x2="624" y2="406" stroke="#c67e5a" stroke-opacity="0.35" stroke-width="2"/>
<circle cx="624" cy="433" r="27" fill="#f7c7a8" opacity="0.9"/>
<rect x="1118.1" y="452.3" width="408.8" height="520.0" fill="#c67e5a" opacity="0.22" rx="0"/>
<rect x="0.0" y="0.0" width="1600.0" height="1100.0" fill="#000" opacity="0.00" rx="0"/>
<rect width="1600" height="1100" fill="#1a1512" opacity="0.001" filter="url(#grain)"/>
</svg>