<svg xmlns="http://www.w3.org/2000/svg" viewBox="0 0 1600 1100" width="1600" height="1100" role="img" aria-label="studio-team placeholder render">
<defs>
  <linearGradient id="bg" x1="0" y1="0" x2="1" y2="1">
    <stop offset="0" stop-color="#33302c"/><stop offset="1" stop-color="#161514"/>
  </linearGradient>
  <radialGradient id="glow" cx="0.74" cy="0.18" r="0.7">
    <stop offset="0" stop-color="#eee4d2" stop-opacity="0.55"/>
    <stop offset="0.5" stop-color="#bfae94" stop-opacity="0.18"/>
    <stop offset="1" stop-color="#161514" stop-opacity="0"/>
  </radialGradient>
  <linearGradient id="shaft" x1="0" y1="0" x2="0" y2="1">
    <stop offset="0" stop-color="#eee4d2" stop-opacity="0.35"/>
    <stop offset="1" stop-color="#eee4d2" stop-opacity="0"/>
  </linearGradient>
  <linearGradient id="floor" x1="0" y1="0" x2="0" y2="1">
    <stop offset="0" stop-color="#161514" stop-opacity="0"/>
    <stop offset="1" stop-color="#000" stop-opacity="0.65"/>
  </linearGradient>
  <filter id="grain">
    <feTurbulence type="fractalNoise" baseFrequency="0.9" numOctaves="2" seed="115" stitchTiles="stitch"/>
    <feColorMatrix type="saturate" values="0"/>
    <feComponentTransfer><feFuncA type="linear" slope="0.14"/></feComponentTransfer>
    <feBlend in2="SourceGraphic" mode="overlay"/>
  </filter>
  <filter id="soft"><feGaussianBlur stdDeviation="28"/></filter>
</defs>
<rect x="0.0" y="0.0" width="1600.0" height="1100.0" fill="url(#bg)" opacity="1.00" rx="0"/>
<rect x="0.0" y="0.0" width="1600.0" height="1100.0" fill="url(#glow)" opacity="1.00" rx="0"/>
<g transform="translate(860 0) skewX(13.4)"><rect x="0.0" y="0.0" width="113.5" height="1100.0" fill="url(#shaft)" opacity="0.90" rx="0"/></g>
<g transform="translate(878 0) skewX(15.0)"><rect x="0.0" y="0.0" width="106.7" height="1100.0" fill="url(#shaft)" opacity="0.90" rx="0"/></g>
<rect x="0.0" y="681.8" width="1600.0" height="418.2" fill="url(#floor)" opacity="1.00" rx="0"/>
<rect x="169.5" y="505.6" width="220.4" height="160.3" fill="#000" opacity="0.68" rx="0"/>
<rect x="777.7" y="517.4" width="134.6" height="231.2" fill="#000" opacity="0.60" rx="120"/>
<rect x="482.5" y="602.0" width="94.1" height="84.5" fill="#161514" opacity="0.52" rx="0"/>
<rect x="1266.2" y="459.1" width="158.4" height="257.7" fill="#000" opacity="0.46" rx="6"/>
<rect x="1427.7" y="517.3" width="140.0" height="205.8" fill="#33302c" opacity="0.68" rx="0"/>
<rect x="1198.0" y="512.0" width="341.9" height="183.0" fill="#161514" opacity="0.50" rx="0"/>
<rect x="908.9" y="606.6" width="105.7" height="57.7" fill="#000" opacity="0.70" rx="0"/>
<rect x="346.8" y="520.9" width="348.2" height="238.1" fill="#33302c" opacity="0.37" rx="6"/>
<circle cx="1425" cy="142" r="48" fill="#eee4d2" opacity="0.18" filter="url(#soft)"/>
<line x1="1425" y1="0" x2="1425" y2="126" stroke="#bfae94" stroke-opacity="0.35" stroke-width="2"/>
<circle cx="1425" cy="142" r="16" fill="#eee4d2" opacity="0.9"/>
<circle cx="371" cy="300" r="49" fill="#eee4d2" opacity="0.18" filter="url(#soft)"/>
<line x1="371" y1="0" x2="371" y2="283" stroke="#bfae94" stroke-opacity="0.35" stroke-width="2"/>
<circle cx="371" cy="300" r="16" fill="#eee4d2" opacity="0.9"/>
<circle cx="1032" cy="378" r="124" fill="#eee4d2" opacity="0.18" filter="url(#soft)"/>
<line x1="1032" y1="0" x2="1032" y2="336" stroke="#bfae94" stroke-opacity="0.35" stroke-width="2"/>
<circle cx="1032" cy="378" r="41" fill="#eee4d2" opacity="0.9"/>
<circle cx="1270" cy="328" r="94" fill="#eee4d2" opacity="0.18" filter="url(#soft)"/>
<line x1="1270" y1="0" x2="1270" y2="297" stroke="#bfae94" stroke-opacity="0.35" stroke-width="2"/>
<circle cx="1270" cy="328" r="31" fill="#eee4d2" opacity="0.9"/>
<rect x="309.1" y="381.2" width="441.4" height="520.0" fill="#bfae94" opacity="0.22" rx="0"/>
<rect x="0.0" y="0.0" width="1600.0" height="1100.0" fill="#000" opacity="0.00" rx="0"/>
<rect width="1600" height="1100" fill="#161514" opacity="0.001" filter="url(#grain)"/>
</svg>