<svg xmlns="http://www.w3.org/2000/svg" viewBox="0 0 1600 1100" width="1600" height="1100" role="img" aria-label="studio-process placeholder render">
<defs>
  <linearGradient id="bg" x1="0" y1="0" x2="1" y2="1">
    <stop offset="0" stop-color="#f4f2ec"/><stop offset="1" stop-color="#ece9df"/>
  </linearGradient>
  <radialGradient id="glow" cx="0.34" cy="0.17" r="0.7">
    <stop offset="0" stop-color="#fbf7ea" stop-opacity="0.9"/>
    <stop offset="0.5" stop-color="#fbf7ea" stop-opacity="0.25"/>
    <stop offset="1" stop-color="#ece9df" stop-opacity="0"/>
  </radialGradient>
  <linearGradient id="shaft" x1="0" y1="0" x2="0" y2="1">
    <stop offset="0" stop-color="#fbf7ea" stop-opacity="0.55"/>
    <stop offset="1" stop-color="#fbf7ea" stop-opacity="0"/>
  </linearGradient>
  <linearGradient id="floor" x1="0" y1="0" x2="0" y2="1">
    <stop offset="0" stop-color="#2c3428" stop-opacity="0"/>
    <stop offset="1" stop-color="#2c3428" stop-opacity="0.28"/>
  </linearGradient>
  <filter id="grain">
    <feTurbulence type="fractalNoise" baseFrequency="0.9" numOctaves="2" seed="117" stitchTiles="stitch"/>
    <feColorMatrix type="saturate" values="0"/>
    <feComponentTransfer><feFuncA type="linear" slope="0.12"/></feComponentTransfer>
    <feBlend in2="SourceGraphic" mode="overlay"/>
  </filter>
  <filter id="soft"><feGaussianBlur stdDeviation="28"/></filter>
</defs>
<rect x="0.0" y="0.0" width="1600.0" height="1100.0" fill="url(#bg)" opacity="1.00" rx="0"/>
<rect x="0.0" y="0.0" width="1600.0" height="1100.0" fill="url(#glow)" opacity="1.00" rx="0"/>
<g transform="translate(1349 0) skewX(7.3)"><rect x="0.0" y="0.0" width="149.4" height="1100.0" fill="url(#shaft)" opacity="0.90" rx="0"/></g>
<g transform="translate(1145 0) skewX(-6.1)"><rect x="0.0" y="0.0" width="211.6" height="1100.0" fill="url(#shaft)" opacity="0.90" rx="0"/></g>
<g transform="translate(731 0) skewX(-13.4)"><rect x="0.0" y="0.0" width="164.9" height="1100.0" fill="url(#shaft)" opacity="0.90" rx="0"/></g>
<rect x="0.0" y="695.7" width="1600.0" height="404.3" fill="url(#floor)" opacity="1.00" rx="0"/>
<rect x="613.5" y="551.5" width="134.3" height="124.9" fill="#46523d" opacity="0.29" rx="0"/>
<rect x="1255.2" y="544.1" width="249.9" height="180.0" fill="#46523d" opacity="0.30" rx="120"/>
<rect x="111.9" y="688.1" width="329.3" height="78.0" fill="#46523d" opacity="0.35" rx="0"/>
<rect x="586.6" y="588.6" width="146.7" height="113.2" fill="#2c3428" opacity="0.28" rx="6"/>
<rect x="1220.3" y="482.0" width="337.4" height="194.4" fill="#2c3428" opacity="0.33" rx="0"/>
<rect x="329.7" y="648.5" width="249.6" height="112.0" fill="#46523d" opacity="0.42" rx="120"/>
<circle cx="1152" cy="246" r="125" fill="#fbf7ea" opacity="0.5" filter="url(#soft)"/>
<line x1="1152" y1="0" x2="1152" y2="204" stroke="#2c3428" stroke-opacity="0.5" stroke-width="2"/>
<circle cx="1152" cy="246" r="42" fill="#fbf7ea" opacity="0.95"/>
<circle cx="996" cy="422" r="134" fill="#fbf7ea" opacity="0.5" filter="url(#soft)"/>
<line x1="996" y1="0" x2="996" y2="378" stroke="#2c3428" stroke-opacity="0.5" stroke-width="2"/>
<circle cx="996" cy="422" r="45" fill="#fbf7ea" opacity="0.95"/>
<circle cx="498" cy="268" r="82" fill="#fbf7ea" opacity="0.5" filter="url(#soft)"/>
<line x1="498" y1="0" x2="498" y2="240" stroke="#2c3428" stroke-opacity="0.5" stroke-width="2"/>
<circle cx="498" cy="268" r="27" fill="#fbf7ea" opacity="0.95"/>
<rect x="386.9" y="281.5" width="283.9" height="520.0" fill="#46523d" opacity="0.30" rx="0"/>
<rect width="1600" height="1100" fill="#ece9df" opacity="0.001" filter="url(#grain)"/>
</svg>