<svg xmlns="http://www.w3.org/2000/svg" viewBox="0 0 1600 1100" width="1600" height="1100" role="img" aria-label="texture-grain placeholder render">
<defs>
  <linearGradient id="bg" x1="0" y1="0" x2="1" y2="1">
    <stop offset="0" stop-color="#2a2725"/><stop offset="1" stop-color="#151413"/>
  </linearGradient>
  <radialGradient id="glow" cx="0.34" cy="0.17" r="0.7">
    <stop offset="0" stop-color="#d8cdb8" stop-opacity="0.55"/>
    <stop offset="0.5" stop-color="#8c7f6c" stop-opacity="0.18"/>
    <stop offset="1" stop-color="#151413" stop-opacity="0"/>
  </radialGradient>
  <linearGradient id="shaft" x1="0" y1="0" x2="0" y2="1">
    <stop offset="0" stop-color="#d8cdb8" stop-opacity="0.35"/>
    <stop offset="1" stop-color="#d8cdb8" stop-opacity="0"/>
  </linearGradient>
  <linearGradient id="floor" x1="0" y1="0" x2="0" y2="1">
    <stop offset="0" stop-color="#151413" stop-opacity="0"/>
    <stop offset="1" stop-color="#000" stop-opacity="0.65"/>
  </linearGradient>
  <filter id="grain">
    <feTurbulence type="fractalNoise" baseFrequency="0.9" numOctaves="2" seed="117" stitchTiles="stitch"/>
    <feColorMatrix type="saturate" values="0"/>
    <feComponentTransfer><feFuncA type="linear" slope="0.14"/></feComponentTransfer>
    <feBlend in2="SourceGraphic" mode="overlay"/>
  </filter>
  <filter id="soft"><feGaussianBlur stdDeviation="28"/></filter>
</defs>
<rect x="0.0" y="0.0" width="1600.0" height="1100.0" fill="url(#bg)" opacity="1.00" rx="0"/>
<rect x="0.0" y="0.0" width="1600.0" height="1100.0" fill="url(#glow)" opacity="1.00" rx="0"/>
<g transform="translate(1349 0) skewX(7.3)"><rect x="0.0" y="0.0" width="149.4" height="1100.0" fill="url(#shaft)" opacity="0.90" rx="0"/></g>
<g transform="translate(1145 0) skewX(-6.1)"><rect x="0.0" y="0.0" width="211.6" height="1100.0" fill="url(#shaft)" opacity="0.90" rx="0"/></g>
<g transform="translate(731 0) skewX(-13.4)"><rect x="0.0" y="0.0" width="164.9" height="1100.0" fill="url(#shaft)" opacity="0.90" rx="0"/></g>
<rect x="0.0" y="695.7" width="1600.0" height="404.3" fill="url(#floor)" opacity="1.00" rx="0"/>
<rect x="613.5" y="551.5" width="134.3" height="124.9" fill="#2a2725" opacity="0.54" rx="0"/>
<rect x="1333.4" y="603.3" width="220.5" height="161.1" fill="#000" opacity="0.40" rx="0"/>
<rect x="258.7" y="664.2" width="258.1" height="44.8" fill="#2a2725" opacity="0.54" rx="6"/>
<rect x="1340.5" y="583.6" width="173.2" height="162.3" fill="#151413" opacity="0.25" rx="6"/>
<rect x="623.0" y="627.2" width="237.5" height="49.8" fill="#2a2725" opacity="0.63" rx="120"/>
<rect x="578.3" y="552.0" width="289.5" height="205.2" fill="#151413" opacity="0.68" rx="120"/>
<circle cx="262" cy="189" r="142" fill="#d8cdb8" opacity="0.18" filter="url(#soft)"/>
<line x1="262" y1="0" x2="262" y2="142" stroke="#8c7f6c" stroke-opacity="0.35" stroke-width="2"/>
<circle cx="262" cy="189" r="47" fill="#d8cdb8" opacity="0.9"/>
<circle cx="631" cy="123" r="88" fill="#d8cdb8" opacity="0.18" filter="url(#soft)"/>
<line x1="631" y1="0" x2="631" y2="93" stroke="#8c7f6c" stroke-opacity="0.35" stroke-width="2"/>
<circle cx="631" cy="123" r="29" fill="#d8cdb8" opacity="0.9"/>
<rect x="914.4" y="447.6" width="477.8" height="520.0" fill="#8c7f6c" opacity="0.22" rx="0"/>
<rect x="0.0" y="0.0" width="1600.0" height="1100.0" fill="#000" opacity="0.00" rx="0"/>
<rect width="1600" height="1100" fill="#151413" opacity="0.001" filter="url(#grain)"/>
</svg>